<?xml version="1.0" encoding="iso-8859-1"?>
<!-- Generator: Adobe Illustrator 19.0.0, SVG Export Plug-In . SVG Version: 6.00 Build 0)  -->
<svg version="1.1" id="Layer_1" xmlns="http://www.w3.org/2000/svg" xmlns:xlink="http://www.w3.org/1999/xlink" x="0px" y="0px"
	 viewBox="0 0 480 480" style="enable-background:new 0 0 480 480;" xml:space="preserve">
<polygon style="fill:#C42014;" points="139.2,480 0,340.8 0,139.2 139.2,0 340.8,0 480,139.2 480,340.8 340.8,480 "/>
<polyline style="fill:#A50804;" points="144,0 340.8,0 480,139.2 480,336 "/>
<polygon style="fill:#F2F2E4;" points="372.8,180.8 299.2,107.2 240,166.4 180.8,107.2 107.2,180.8 166.4,240 107.2,299.2 
	180.8,372.8 240,313.6 299.2,372.8 372.8,299.2 313.6,240 "/>
<polyline style="fill:#D1CFB0;" points="240,313.6 299.2,372.8 372.8,299.2 313.6,240 372.8,180.8 299.2,107.2 240,166.4 "/>
<g>
</g>
<g>
</g>
<g>
</g>
<g>
</g>
<g>
</g>
<g>
</g>
<g>
</g>
<g>
</g>
<g>
</g>
<g>
</g>
<g>
</g>
<g>
</g>
<g>
</g>
<g>
</g>
<g>
</g>
</svg>
